<svg width="188" height="544" viewBox="0 0 188 544" fill="none" xmlns="http://www.w3.org/2000/svg">
<path d="M168.551 468.137H149.824V171.06C149.824 165.998 147.969 161.604 144.267 157.89C140.558 154.187 136.169 152.333 131.103 152.333H18.733C13.66 152.333 9.272 154.187 5.563 157.89C1.855 161.605 0 165.993 0 171.06V208.514C0 213.588 1.854 217.976 5.563 221.684C9.266 225.399 13.654 227.253 18.733 227.253H37.46V468.136H18.733C13.66 468.136 9.272 469.991 5.563 473.693C1.855 477.408 0 481.797 0 486.863V524.318C0 529.392 1.854 533.779 5.563 537.488C9.266 541.203 13.654 543.058 18.733 543.058H168.55C173.624 543.058 178.011 541.203 181.72 537.488C185.423 533.787 187.284 529.398 187.284 524.318V486.863C187.284 481.802 185.429 477.408 181.72 473.693C178.011 469.984 173.619 468.137 168.551 468.137Z" fill="#4C7FAF"/>
<path d="M89.786 125.84C124.536 125.84 152.706 97.6698 152.706 62.92C152.706 28.1702 124.536 0 89.786 0C55.0363 0 26.866 28.1702 26.866 62.92C26.866 97.6698 55.0363 125.84 89.786 125.84Z" fill="#4C7FAF"/>
</svg>
