<svg width="66" height="66" viewBox="0 0 66 66" fill="none" xmlns="http://www.w3.org/2000/svg">
<path d="M18.4531 32.5551C18.4531 33.0746 18.6639 33.5451 19.0043 33.8855C19.3448 34.226 19.8153 34.4368 20.3347 34.4368L45.6554 34.4368C46.6948 34.4366 47.5372 33.5942 47.5372 32.555C47.5368 31.5157 46.6945 30.6734 45.6554 30.6732L20.3349 30.6734C19.2957 30.6734 18.4533 31.5157 18.4531 32.5551Z" fill="#c07e76"/>
<path d="M60.1976 32.555C60.1978 29.1003 58.8526 25.8526 56.4097 23.4097C53.9668 20.9671 50.7191 19.622 47.2646 19.622L38.5209 19.6218C37.4815 19.622 36.6391 20.4643 36.6389 21.5038C36.6391 22.5425 37.4813 23.3854 38.5206 23.3854L47.2647 23.3854C49.7139 23.3855 52.0167 24.3389 53.7487 26.071C55.4806 27.8029 56.4342 30.1055 56.4342 32.5548C56.4344 35.004 55.4804 37.3069 53.7486 39.0388C52.0167 40.7707 49.7141 41.7242 47.2647 41.7242L38.5209 41.7242C37.4815 41.7244 36.6391 42.5668 36.6391 43.606C36.6393 44.1257 36.8501 44.5962 37.1905 44.9366C37.531 45.2771 38.0015 45.4878 38.5211 45.488L47.2647 45.4878C50.7193 45.4878 53.9673 44.1427 56.4099 41.7001C58.8525 39.2572 60.1979 36.0095 60.1976 32.555Z" fill="#c07e76"/>
<path d="M27.4702 41.7246L18.726 41.7249C16.2768 41.7248 13.9741 40.771 12.2424 39.0393C10.5105 37.3074 9.55673 35.005 9.55673 32.5557C9.55655 27.4997 13.6702 23.3861 18.7263 23.3861L27.4702 23.3861C28.5096 23.3859 29.352 22.5435 29.352 21.5043C29.3518 20.4652 28.5093 19.6227 27.4702 19.6225L18.7262 19.6223C11.5948 19.6225 5.79315 25.4242 5.79315 32.5553C5.79333 36.0097 7.13827 39.2575 9.58121 41.7001C12.024 44.1429 15.2716 45.488 18.7262 45.488L27.4705 45.4882C28.51 45.488 29.3523 44.6456 29.3523 43.6064C29.3516 42.5675 28.5096 41.7248 27.4702 41.7246Z" fill="#c07e76"/>
</svg>
