<svg width="86" height="145" viewBox="0 0 86 145" fill="none" xmlns="http://www.w3.org/2000/svg">
<path d="M6.28866 127.033C5.81856 127.742 1.56701 140.167 0 144.5L4.81959 140.917L11.2835 124.67C15.6986 114.345 18.1584 108.572 22.7423 98.0831C30.5971 81.5054 35.2767 72.5005 43.8969 56.7264C57.8725 31.0354 60.9483 27.3584 67.4021 18.6192C46.8351 53.1815 22.7423 101.037 13.0464 128.214C24.2113 125.556 32.1443 120.534 33.6134 116.694C29.3825 118.112 25.3866 118.269 23.9175 118.171C40.0773 112.263 44.7784 104.287 48.3041 97.4923C43.6031 101.037 38.1186 101.333 35.9639 101.037C50.7722 96.0743 60.1546 77.5032 62.9948 68.838C58.2938 71.2012 53.9845 71.3982 52.4175 71.2012C65.8155 66.7111 73.4742 49.0459 75.6289 40.7745C71.1629 43.6104 66.7165 44.1225 65.0515 44.024C76.5103 39.0021 81.5051 25.4135 81.5051 18.6192C79.6247 20.7461 76.2165 21.6717 74.7474 21.8686C82.9742 13.5973 82.9742 10.9386 85.9124 0.00864545C83.7969 -0.227678 77.5876 4.43972 74.7474 6.80296L79.4484 0.00864545C62.9948 4.02615 58.2938 15.4682 58 20.687C57.0598 17.3785 58 13.5973 58.5876 12.1202C42.134 20.9824 38.9021 34.8664 38.6082 43.4332C37.1979 40.5973 37.0412 34.9649 37.1392 32.5032C21.8608 49.5185 20.1959 65.3916 21.2732 71.2012C18.9227 69.0743 19.1186 61.6498 19.5103 58.2034C8.69794 72.3829 9.52062 87.7439 11.2835 96.0153C8.93299 94.8336 7.75773 89.024 7.46392 86.2669C1.82268 95.4835 4.72165 107.831 6.87629 112.853C5.70103 112.853 3.25258 108.127 2.17526 105.764C1 110.254 4.42783 121.814 6.28866 127.033Z" fill="#F4C7B5"/>
</svg>
