<svg width="512" height="512" viewBox="0 0 512 512" fill="none" xmlns="http://www.w3.org/2000/svg">
<path d="M256.005 0.125C177.144 0.125 105.679 37.1069 58.9022 93.1796L39.7116 74.2888C35.8135 70.0908 29.8154 68.5916 24.4191 70.6905C19.0217 72.1898 15.1236 76.9865 14.5229 82.6837L0.130927 181.635C-1.49428 193.817 12.5559 200.761 17.2226 198.427C20.2721 197.993 122.548 183.428 116.174 184.335C121.871 183.734 126.37 179.836 128.169 174.439C129.969 169.042 128.768 163.044 124.571 158.848L101.782 136.059C137.465 90.4799 193.936 61.0952 256.007 61.0952C363.055 61.0952 451.611 148.352 451.911 255.399C451.911 255.699 451.911 255.699 451.911 256C451.911 259.812 451.785 263.626 451.549 267.408C450.958 276.89 459.246 284.56 468.699 283.178L498.92 278.754C506.084 277.705 511.486 271.687 511.735 264.453C511.832 261.612 511.882 258.782 511.882 255.999C511.88 115.62 397.015 0.125 256.005 0.125Z" fill="white"/>
<path d="M494.788 310.573C491.739 311.007 389.463 325.573 395.837 324.665C390.139 325.266 385.641 329.164 383.842 334.562C382.042 339.959 383.243 345.956 387.44 350.155L411.429 374.143C376.044 420.621 318.973 450.906 256.004 450.906C148.655 450.906 60.0996 363.348 60.0996 256.001C60.2006 254.05 59.8577 249.85 60.5154 241.867C61.306 232.25 52.9371 224.445 43.4807 225.778L13.2645 230.031C6.12699 231.037 0.700635 236.983 0.376794 244.187C-2.24451e-05 252.539 0.169895 259.265 0.129914 262.296C3.4283 399.93 117.473 511.875 256.005 511.875C335.765 511.875 407.832 474.292 454.609 417.021L472.299 434.712C476.237 439.088 482.782 440.235 487.592 438.31C492.989 436.811 496.887 432.014 497.488 426.317L511.88 327.365C513.119 318.083 504.551 308.945 494.788 310.573Z" fill="white"/>
</svg>
